<?xml version="1.0" encoding="UTF-8"?>
<svg version="1.1" xmlns="http://www.w3.org/2000/svg" width="86" height="88">
<path d="M0 0 C1.36566498 -0.01155688 2.7312835 -0.03206733 4.09667969 -0.06152344 C6.06982509 -0.10408707 8.04352735 -0.11774848 10.01708984 -0.13061523 C11.78729492 -0.15248901 11.78729492 -0.15248901 13.59326172 -0.17480469 C16.54833984 0.29516602 16.54833984 0.29516602 18.39794922 2.09912109 C19.54833984 4.29516602 19.54833984 4.29516602 20.48583984 7.85766602 C21.14690254 11.36772418 21.14690254 11.36772418 23.58349609 12.48657227 C25.54833984 14.29516602 25.54833984 14.29516602 26.07958984 18.13110352 C26.09020752 19.64412295 26.07900361 21.15742007 26.04833984 22.67016602 C26.07154297 23.80325195 26.07154297 23.80325195 26.09521484 24.95922852 C26.05500946 30.7085985 26.05500946 30.7085985 23.51708984 33.64672852 C21.1709401 36.80285853 21.42361876 37.69102419 21.65380859 41.49829102 C21.89468739 48.05811345 19.54982118 51.7949628 15.86083984 57.04516602 C15.33039063 57.8430957 14.79994141 58.64102539 14.25341797 59.46313477 C11.81920281 63.10101705 9.28628548 66.6505865 6.68505859 70.17016602 C4.33495208 73.12395812 4.33495208 73.12395812 4.04833984 76.54516602 C3.54833984 79.29516602 3.54833984 79.29516602 1.29833984 81.10766602 C-1.45166016 82.29516602 -1.45166016 82.29516602 -4.13916016 82.73266602 C-6.62337908 83.05170906 -6.62337908 83.05170906 -7.70166016 85.29516602 C-7.94916016 85.95516602 -8.19666016 86.61516602 -8.45166016 87.29516602 C-10.81652562 89.66003148 -16.59123948 88.57620943 -19.76416016 88.60766602 C-21.20952148 88.65117187 -21.20952148 88.65117187 -22.68408203 88.69555664 C-29.88025715 88.76038705 -29.88025715 88.76038705 -32.93212891 86.27563477 C-33.43357422 85.62208008 -33.93501953 84.96852539 -34.45166016 84.29516602 C-35.44166016 84.29516602 -36.43166016 84.29516602 -37.45166016 84.29516602 C-38.47185589 83.31577811 -39.47315821 82.31621153 -40.45166016 81.29516602 C-41.11166016 81.29516602 -41.77166016 81.29516602 -42.45166016 81.29516602 C-42.45166016 80.63516602 -42.45166016 79.97516602 -42.45166016 79.29516602 C-43.44166016 78.96516602 -44.43166016 78.63516602 -45.45166016 78.29516602 C-47.49315545 74.33976888 -48.51790939 69.86204688 -49.76806641 65.59985352 C-50.29560573 63.82129237 -50.86501056 62.0551148 -51.45166016 60.29516602 C-52.11166016 60.29516602 -52.77166016 60.29516602 -53.45166016 60.29516602 C-53.71978516 59.38766602 -53.98791016 58.48016602 -54.26416016 57.54516602 C-55.23540037 54.33933978 -55.23540037 54.33933978 -57.07666016 52.29516602 C-58.99383728 49.50654475 -58.79721142 47.61245816 -58.45166016 44.29516602 C-57.95666016 43.36704102 -57.95666016 43.36704102 -57.45166016 42.42016602 C-56.17234902 40.12054576 -56.17234902 40.12054576 -56.57666016 36.54516602 C-56.69389234 27.45129798 -50.54130678 21.88456493 -44.59619141 15.71313477 C-41.29174104 13.17219715 -38.73600339 12.23034353 -34.80883789 11.07080078 C-30.81766367 9.75749571 -27.24206667 7.69923033 -23.57666016 5.67016602 C-22.10117727 4.86350063 -20.62465635 4.05873027 -19.14697266 3.25610352 C-18.50775879 2.90338379 -17.86854492 2.55066406 -17.20996094 2.18725586 C-11.77985249 -0.5677589 -5.9492224 0.03513038 0 0 Z M-0.45166016 22.29516602 C-0.45166016 24.27516602 -0.45166016 26.25516602 -0.45166016 28.29516602 C-0.12166016 28.29516602 0.20833984 28.29516602 0.54833984 28.29516602 C0.54833984 26.31516602 0.54833984 24.33516602 0.54833984 22.29516602 C0.21833984 22.29516602 -0.11166016 22.29516602 -0.45166016 22.29516602 Z M-10.45166016 80.29516602 C-6.45166016 81.29516602 -6.45166016 81.29516602 -6.45166016 81.29516602 Z M-13.45166016 83.29516602 C-12.45166016 85.29516602 -12.45166016 85.29516602 -12.45166016 85.29516602 Z M-15.45166016 85.29516602 C-15.78166016 85.95516602 -16.11166016 86.61516602 -16.45166016 87.29516602 C-15.46166016 86.96516602 -14.47166016 86.63516602 -13.45166016 86.29516602 C-14.11166016 85.96516602 -14.77166016 85.63516602 -15.45166016 85.29516602 Z " fill="#FB8181" transform="translate(60.45166015625,-0.295166015625)"/>
<path d="M0 0 C4.70737876 5.47677458 4.71491934 10.43289771 4.44921875 17.32421875 C3.10363041 34.97517172 -3.16327417 54.07818468 -11.1171875 69.8359375 C-12.25181438 72.22774542 -12.25181438 72.22774542 -12 76 C-12.721875 76.226875 -13.44375 76.45375 -14.1875 76.6875 C-17.53209313 78.24831013 -19.51603959 80.3031287 -22 83 C-22.66 82.34 -23.32 81.68 -24 81 C-22.35 79.02 -20.7 77.04 -19 75 C-20.42892578 74.00419922 -20.42892578 74.00419922 -21.88671875 72.98828125 C-23.15382743 72.09661218 -24.42074436 71.20467056 -25.6875 70.3125 C-26.31333984 69.87744141 -26.93917969 69.44238281 -27.58398438 68.99414062 C-31.42430785 66.27977586 -34.76084562 63.4377015 -38 60 C-38.53625 59.44957031 -39.0725 58.89914063 -39.625 58.33203125 C-45.72960912 51.58574447 -50.46678723 42.75869788 -51.3125 33.625 C-50.82134239 27.92757177 -49.52690359 23.06511954 -45.3125 19 C-41.4030892 16.63960103 -38.40955466 16.04360907 -34 17 C-31.4376533 18.12859505 -29.34574843 19.43616772 -27 21 C-26.443125 20.2265625 -25.88625 19.453125 -25.3125 18.65625 C-9.54545455 -2.86363636 -9.54545455 -2.86363636 0 0 Z M-6 18 C-6 19.98 -6 21.96 -6 24 C-5.67 24 -5.34 24 -5 24 C-5 22.02 -5 20.04 -5 18 C-5.33 18 -5.66 18 -6 18 Z " fill="#F88282" transform="translate(66,4)"/>
<path d="M0 0 C4.70737876 5.47677458 4.71491934 10.43289771 4.44921875 17.32421875 C3.10363041 34.97517172 -3.16327417 54.07818468 -11.1171875 69.8359375 C-12.25181438 72.22774542 -12.25181438 72.22774542 -12 76 C-12.721875 76.226875 -13.44375 76.45375 -14.1875 76.6875 C-17.53209313 78.24831013 -19.51603959 80.3031287 -22 83 C-22.66 82.34 -23.32 81.68 -24 81 C-22.35 79.02 -20.7 77.04 -19 75 C-20.42892578 74.00419922 -20.42892578 74.00419922 -21.88671875 72.98828125 C-23.15382743 72.09661218 -24.42074436 71.20467056 -25.6875 70.3125 C-26.31333984 69.87744141 -26.93917969 69.44238281 -27.58398438 68.99414062 C-31.42430785 66.27977586 -34.76084562 63.4377015 -38 60 C-38.53625 59.44957031 -39.0725 58.89914063 -39.625 58.33203125 C-45.72960912 51.58574447 -50.46678723 42.75869788 -51.3125 33.625 C-50.82134239 27.92757177 -49.52690359 23.06511954 -45.3125 19 C-41.4030892 16.63960103 -38.40955466 16.04360907 -34 17 C-31.4376533 18.12859505 -29.34574843 19.43616772 -27 21 C-26.443125 20.2265625 -25.88625 19.453125 -25.3125 18.65625 C-9.54545455 -2.86363636 -9.54545455 -2.86363636 0 0 Z M-13.91796875 7.84765625 C-19.73607835 14.04838814 -27 22.19817701 -27 31 C-27.66 31 -28.32 31 -29 31 C-28.67 28.36 -28.34 25.72 -28 23 C-34.03753053 19.25790207 -34.03753053 19.25790207 -41 19 C-44.8168908 22.12291065 -47.52335854 25.23046227 -48.37109375 30.15625 C-48.68986426 41.40697392 -43.52883629 50.91291333 -36 59 C-27.27965336 68.06068617 -27.27965336 68.06068617 -16 72 C-5.91225949 53.43616983 3.98960251 28.58718728 2 7 C0.41475143 3.99573798 0.41475143 3.99573798 -2 2 C-7.53469988 2 -10.09071471 4.16070888 -13.91796875 7.84765625 Z " fill="#452323" transform="translate(66,4)"/>
<path d="M0 0 C2.39212887 2.35263618 2.96980123 3.67732819 3.28515625 7.046875 C2.0366315 27.81181297 -3.5757209 51.35072671 -15 69 C-24.08820965 67.93666286 -32.56818869 59.19368374 -38.24609375 52.47265625 C-44.19399169 44.08731238 -48.16106277 35.35542471 -47 25 C-45.51349862 20.96731308 -43.62204858 18.41469905 -40 16 C-35.7790775 15.63296326 -32.82257691 16.20114028 -29 18 C-29.33 18.66 -29.66 19.32 -30 20 C-30.75925781 19.94199219 -31.51851562 19.88398438 -32.30078125 19.82421875 C-38.2036388 19.32230341 -38.2036388 19.32230341 -43.1875 21.875 C-45.02018603 28.92379242 -44.66664914 35.08090441 -41.41015625 41.62890625 C-35.60127875 51.9635854 -35.60127875 51.9635854 -26.5625 58.9375 C-24 60 -24 60 -22 62.0625 C-19.67097925 64.31873885 -18.17138267 64.64762415 -15 65 C-13.11495162 60.40885994 -11.55384882 55.74399051 -10.00390625 51.03125 C-9.42265142 49.27617704 -8.83161285 47.52415969 -8.21484375 45.78125 C-2.9749057 30.89180856 -0.78109372 16.7369295 -1 1 C-3.97 1.66 -6.94 2.32 -10 3 C-6.22944716 -0.77055284 -5.05998105 -1.60438423 0 0 Z " fill="#BB6161" transform="translate(65,7)"/>
<path d="M0 0 C0.66 0 1.32 0 2 0 C3.0585155 1.60882327 4.04551622 3.26485895 5 4.9375 C10.68852588 14.1266572 19.55951191 22.5198373 30 26 C30.2784375 25.28328125 30.556875 24.5665625 30.84375 23.828125 C31.96828275 21.07757868 33.19046718 18.41697537 34.5 15.75 C34.9228125 14.87859375 35.345625 14.0071875 35.78125 13.109375 C37 11 37 11 39 10 C38.5532804 15.24895534 37.19198758 19.17406048 34.83984375 23.88671875 C33.75378893 26.24052773 33.75378893 26.24052773 34 30 C33.278125 30.226875 32.55625 30.45375 31.8125 30.6875 C28.46790687 32.24831013 26.48396041 34.3031287 24 37 C23.34 36.34 22.68 35.68 22 35 C24.475 32.03 24.475 32.03 27 29 C26.04738281 28.33613281 25.09476563 27.67226562 24.11328125 26.98828125 C22.84617257 26.09661218 21.57925564 25.20467056 20.3125 24.3125 C19.68666016 23.87744141 19.06082031 23.44238281 18.41601562 22.99414062 C13.24496309 19.33920821 8.92163532 15.20020447 4.8125 10.375 C4.07966797 9.52035156 4.07966797 9.52035156 3.33203125 8.6484375 C0.722228 5.41871031 0 4.29337455 0 0 Z " fill="#4B2626" transform="translate(20,50)"/>
<path d="M0 0 C0.66 0.99 1.32 1.98 2 3 C1.52949219 3.6290625 1.05898438 4.258125 0.57421875 4.90625 C-3.23533379 10.14339884 -6.0540543 14.81876072 -8 21 C-8.66 21 -9.32 21 -10 21 C-10 18.36 -10 15.72 -10 13 C-14.16052104 10.62255941 -17.18755085 9.18085972 -22 10 C-25.10164769 12.55024365 -26.72566416 14.17699247 -28 18 C-28.38140859 22.99379148 -28.24376056 27.66959984 -26.875 32.5 C-26.58625 33.655 -26.2975 34.81 -26 36 C-26.66 36.66 -27.32 37.32 -28 38 C-31.44083263 29.50544444 -33.71970147 22.6758212 -30.03515625 13.8671875 C-28.15233606 10.47100618 -26.3667047 9.03272737 -23 7 C-16.57830563 6.08261509 -13.3234464 7.45103573 -8 11 C-5.36 7.37 -2.72 3.74 0 0 Z " fill="#552C2C" transform="translate(47,14)"/>
<path d="M0 0 C2.45614863 2.39257772 2.97628265 3.70093902 3.25 7.15234375 C2.48200801 18.78022245 -0.02154009 29.74913437 -3 41 C-3.66 41 -4.32 41 -5 41 C-4.56334085 36.41507888 -4.05969328 31.98392605 -3 27.5 C-0.95999959 18.67014749 -0.87424046 10.04071343 -1 1 C-3.97 1.66 -6.94 2.32 -10 3 C-6.22944716 -0.77055284 -5.05998105 -1.60438423 0 0 Z " fill="#B35D5D" transform="translate(65,7)"/>
<path d="M0 0 C2.475 0.495 2.475 0.495 5 1 C5.10957031 1.61488281 5.21914063 2.22976562 5.33203125 2.86328125 C5.49058594 3.67152344 5.64914063 4.47976562 5.8125 5.3125 C5.96332031 6.11300781 6.11414063 6.91351563 6.26953125 7.73828125 C7.08794777 10.27230888 8.08859809 11.20900136 10 13 C10.33 13.99 10.66 14.98 11 16 C11.66 16.165 12.32 16.33 13 16.5 C13.66 16.665 14.32 16.83 15 17 C15.33 17.99 15.66 18.98 16 20 C14.1875 20.6875 14.1875 20.6875 12 21 C10.375 19.5625 10.375 19.5625 9 18 C8.34 18 7.68 18 7 18 C7 17.34 7 16.68 7 16 C6.01 15.67 5.02 15.34 4 15 C2.9375 12.75 2.9375 12.75 2 10 C1.62875 9.175 1.2575 8.35 0.875 7.5 C-0.05688223 4.83747934 -0.15993416 2.79884788 0 0 Z " fill="#FE7070" transform="translate(11,63)"/>
<path d="M0 0 C2.875 1 2.875 1 5 2 C4.67 2.66 4.34 3.32 4 4 C3.24074219 3.94199219 2.48148438 3.88398438 1.69921875 3.82421875 C-4.2036388 3.32230341 -4.2036388 3.32230341 -9.1875 5.875 C-11.35303355 14.2039752 -10.01706061 20.51439308 -6 28 C-5.67 28.66 -5.34 29.32 -5 30 C-6.859375 29.77734375 -6.859375 29.77734375 -9 29 C-12.85891081 23.10444182 -14.16730967 15.89984033 -13 9 C-10.49689375 2.39424156 -7.16624348 -0.57329948 0 0 Z " fill="#BD6363" transform="translate(31,23)"/>
<path d="M0 0 C3.40671759 2.98087789 3.88042133 4.7352256 4.3046875 9.22265625 C4.37069766 12.53416614 4.39079817 15.7100247 4 19 C3.34 19.66 2.68 20.32 2 21 C1.96261719 20.03578125 1.92523438 19.0715625 1.88671875 18.078125 C1.82097656 16.81484375 1.75523438 15.5515625 1.6875 14.25 C1.62949219 12.99703125 1.57148437 11.7440625 1.51171875 10.453125 C0.99544099 6.96923537 0.3746744 5.52110204 -2 3 C-7.67775994 3.141944 -10.33340038 5.68740191 -14.265625 9.40625 C-16 11 -16 11 -18 12 C-17.42541562 8.43442842 -16.14644352 6.78900304 -13.5625 4.3125 C-12.94503906 3.71050781 -12.32757813 3.10851562 -11.69140625 2.48828125 C-8.23429055 -0.5536612 -4.4288251 -0.85775664 0 0 Z " fill="#331919" transform="translate(66,4)"/>
<path d="M0 0 C0.33 0 0.66 0 1 0 C0.5532804 5.24895534 -0.80801242 9.17406048 -3.16015625 13.88671875 C-4.24621107 16.24052773 -4.24621107 16.24052773 -4 20 C-4.721875 20.226875 -5.44375 20.45375 -6.1875 20.6875 C-9.53209313 22.24831013 -11.51603959 24.3031287 -14 27 C-14.66 26.34 -15.32 25.68 -16 25 C-14.09570312 22.75390625 -14.09570312 22.75390625 -12.19140625 20.5078125 C-10.9121848 18.99405921 -10.9121848 18.99405921 -10 17 C-9.34 17 -8.68 17 -8 17 C-7.8453125 15.94039062 -7.8453125 15.94039062 -7.6875 14.859375 C-6.90723128 11.61416645 -5.63347307 9.15569729 -4 6.25 C-3.46375 5.28578125 -2.9275 4.3215625 -2.375 3.328125 C-1 1 -1 1 0 0 Z " fill="#4E2828" transform="translate(58,60)"/>
<path d="M0 0 C1.63001953 0.01353516 1.63001953 0.01353516 3.29296875 0.02734375 C4.12441406 0.03894531 4.95585938 0.05054688 5.8125 0.0625 C2.5446794 2.24104707 -0.56808265 3.56010034 -4.1875 5.0625 C-4.5175 4.7325 -4.8475 4.4025 -5.1875 4.0625 C-8.43689656 3.61119492 -9.77927598 3.75633198 -12.4375 5.75 C-13.345 6.513125 -14.2525 7.27625 -15.1875 8.0625 C-16.68738525 9.01305564 -18.21025595 9.92796618 -19.75 10.8125 C-20.86568359 11.45445313 -20.86568359 11.45445313 -22.00390625 12.109375 C-24.1875 13.0625 -24.1875 13.0625 -28.1875 13.0625 C-28.1875 12.4025 -28.1875 11.7425 -28.1875 11.0625 C-25.08529023 9.41295833 -21.98040789 7.7685119 -18.875 6.125 C-17.99392578 5.65642578 -17.11285156 5.18785156 -16.20507812 4.70507812 C-15.35751953 4.25712891 -14.50996094 3.80917969 -13.63671875 3.34765625 C-12.46629028 2.72709351 -12.46629028 2.72709351 -11.2722168 2.09399414 C-7.35553234 0.15606325 -4.31867225 -0.04643734 0 0 Z " fill="#FE7070" transform="translate(54.1875,-0.0625)"/>
<path d="M0 0 C0.66 1.32 1.32 2.64 2 4 C1 5.875 1 5.875 -1 8 C-2.91015625 8.5703125 -2.91015625 8.5703125 -5.0625 9 C-8.33068045 9.569211 -8.33068045 9.569211 -10.4375 12.0625 C-10.7159375 13.0215625 -10.7159375 13.0215625 -11 14 C-12 15 -12 15 -15.5625 15.0625 C-16.696875 15.041875 -17.83125 15.02125 -19 15 C-18.09515208 13.84481082 -17.1755794 12.70114594 -16.25 11.5625 C-15.73953125 10.92441406 -15.2290625 10.28632812 -14.703125 9.62890625 C-12.78169758 7.79121076 -11.54364341 7.55041023 -9 7 C-8.67 6.34 -8.34 5.68 -8 5 C-6.35 5.33 -4.7 5.66 -3 6 C-2.01 4.02 -1.02 2.04 0 0 Z " fill="#F66B6B" transform="translate(63,73)"/>
<path d="M0 0 C0.66 0.99 1.32 1.98 2 3 C1.52949219 3.6290625 1.05898438 4.258125 0.57421875 4.90625 C-3.23533379 10.14339884 -6.0540543 14.81876072 -8 21 C-8.66 21 -9.32 21 -10 21 C-9.9175 19.741875 -9.835 18.48375 -9.75 17.1875 C-9.68311857 15.01202652 -9.68311857 15.01202652 -10 13 C-11.84188612 10.94729537 -11.84188612 10.94729537 -14 10 C-11.66666667 10 -9.33333333 10 -7 10 C-5.18290825 7.75354465 -5.18290825 7.75354465 -3.375 5 C-2.74335937 4.071875 -2.11171875 3.14375 -1.4609375 2.1875 C-0.73777344 1.1046875 -0.73777344 1.1046875 0 0 Z " fill="#613232" transform="translate(47,14)"/>
<path d="M0 0 C0.66 0.66 1.32 1.32 2 2 C0.93879533 9.95903505 -2.21255643 21.21255643 -8 27 C-10.125 26.625 -10.125 26.625 -12 26 C-11.01 26 -10.02 26 -9 26 C-7.54477665 22.45572269 -6.26098398 18.88877065 -5.0625 15.25 C-4.71832031 14.2084375 -4.37414063 13.166875 -4.01953125 12.09375 C-3.51486328 10.56234375 -3.51486328 10.56234375 -3 9 C-2.41740418 7.24975433 -1.83416383 5.49972295 -1.25 3.75 C-0.8375 2.5125 -0.425 1.275 0 0 Z " fill="#C86868" transform="translate(59,46)"/>
<path d="M0 0 C0.99 0.33 1.98 0.66 3 1 C2.030625 1.845625 1.06125 2.69125 0.0625 3.5625 C-5.55119173 9.10717093 -9.13612144 16.19221397 -13 23 C-13.66 22.34 -14.32 21.68 -15 21 C-10.75419155 13.15852252 -6.2243727 6.40221192 0 0 Z " fill="#D77070" transform="translate(54,10)"/>
<path d="M0 0 C3.3114019 0.57093136 4.75054423 1.54604826 7 4 C7.66 4.33 8.32 4.66 9 5 C9 5.99 9 6.98 9 8 C10.98 7.34 12.96 6.68 15 6 C15.33 6.99 15.66 7.98 16 9 C4.95513748 9.78147612 4.95513748 9.78147612 1.25 6.75 C0 4 0 4 0 0 Z " fill="#FE7474" transform="translate(26,79)"/>
<path d="M0 0 C1.29608753 2.16014589 2.03382057 3.49462406 1.86328125 6.04296875 C1.68152344 6.75066406 1.49976562 7.45835938 1.3125 8.1875 C1.01666016 9.35152344 1.01666016 9.35152344 0.71484375 10.5390625 C-0.40691604 14.40085848 -1.65607591 18.21013405 -3 22 C-3.99 21.67 -4.98 21.34 -6 21 C-5.81824219 20.40574219 -5.63648438 19.81148437 -5.44921875 19.19921875 C-3.51738847 12.82913223 -1.72347474 6.42941642 0 0 Z " fill="#5F3131" transform="translate(63,40)"/>
<path d="M0 0 C1.6796875 1.53515625 1.6796875 1.53515625 3 4 C3.0545007 6.85698406 2.96900967 9.42992087 2.6875 12.25 C2.62626953 12.99507812 2.56503906 13.74015625 2.50195312 14.5078125 C2.3492857 16.33982155 2.17660246 18.17014316 2 20 C0.01595864 16.70104495 -0.19356328 14.31656275 -0.0625 10.5 C0.05067954 6.91762154 -0.1135753 4.54569882 -1 1 C-3.97 1.66 -6.94 2.32 -10 3 C-6.22944716 -0.77055284 -5.05998105 -1.60438423 0 0 Z " fill="#9C5151" transform="translate(65,7)"/>
<path d="M0 0 C4.65675057 2.64302059 4.65675057 2.64302059 6.5625 4.625 C7.94020004 6.17555815 7.94020004 6.17555815 10.125 6.5 C10.74375 6.665 11.3625 6.83 12 7 C12.33 7.99 12.66 8.98 13 10 C11.1875 10.6875 11.1875 10.6875 9 11 C7.375 9.5625 7.375 9.5625 6 8 C5.34 8 4.68 8 4 8 C4 7.34 4 6.68 4 6 C3.01 5.67 2.02 5.34 1 5 C-0.1875 2.9375 -0.1875 2.9375 -1 1 C-0.67 0.67 -0.34 0.34 0 0 Z " fill="#FE5959" transform="translate(14,73)"/>
<path d="M0 0 C1.72105424 3.44210849 1.51474617 7.23633647 1 11 C-1 13.5625 -1 13.5625 -3 15 C-4.40913826 9.36344696 -3.73956036 6.55846884 -0.91015625 1.50390625 C-0.60980469 1.00761719 -0.30945313 0.51132812 0 0 Z " fill="#FE6C6C" transform="translate(8,24)"/>
<path d="M0 0 C0.33 0.99 0.66 1.98 1 3 C1.66 3 2.32 3 3 3 C3 3.66 3 4.32 3 5 C2.278125 5.226875 1.55625 5.45375 0.8125 5.6875 C-2.53209313 7.24831013 -4.51603959 9.3031287 -7 12 C-7.66 11.34 -8.32 10.68 -9 10 C-6.1310659 6.49352499 -3.2682346 3.14718888 0 0 Z " fill="#1A0B0B" transform="translate(51,75)"/>
<path d="M0 0 C0.66 0 1.32 0 2 0 C2.16435547 0.97839844 2.16435547 0.97839844 2.33203125 1.9765625 C3.26636551 7.12679527 4.36059687 11.40973369 7 16 C7.33 16.66 7.66 17.32 8 18 C6.140625 17.7890625 6.140625 17.7890625 4 17 C0.71637526 11.7097157 -0.53383597 6.13911369 0 0 Z " fill="#CF6C6C" transform="translate(18,35)"/>
<path d="M0 0 C2.25390625 1.51953125 2.25390625 1.51953125 4 3 C3.26394531 2.96519531 2.52789062 2.93039063 1.76953125 2.89453125 C-5.62479476 2.57036226 -5.62479476 2.57036226 -12 6 C-11.6875 4.125 -11.6875 4.125 -11 2 C-7.3946611 -0.40355927 -4.20638975 -0.75085268 0 0 Z " fill="#3F2020" transform="translate(32,21)"/>
<path d="M0 0 C1.32 0.66 2.64 1.32 4 2 C2.700625 2.8353125 2.700625 2.8353125 1.375 3.6875 C-1.95945073 5.90252798 -4.96205756 8.39604933 -8 11 C-7.43040847 7.37386801 -6.07625466 5.74482259 -3.4375 3.25 C-2.79683594 2.63640625 -2.15617187 2.0228125 -1.49609375 1.390625 C-1.00238281 0.93171875 -0.50867187 0.4728125 0 0 Z " fill="#432222" transform="translate(56,5)"/>
<path d="M0 0 C0.66 0.99 1.32 1.98 2 3 C-0.31 6.3 -2.62 9.6 -5 13 C-5.66 12.67 -6.32 12.34 -7 12 C-5.44298069 7.32894208 -2.91552627 3.91294315 0 0 Z " fill="#6C3838" transform="translate(47,14)"/>
<path d="M0 0 C0.99 0.33 1.98 0.66 3 1 C3.309375 2.11375 3.61875 3.2275 3.9375 4.375 C5.047681 8.16267635 5.66374986 9.10945826 9 11 C8.67 11.99 8.34 12.98 8 14 C3.7054214 11.10582746 1.72993716 9.33845705 0.625 4.1875 C0.39335282 2.79534589 0.17692664 1.40016086 0 0 Z " fill="#FE6B6B" transform="translate(77,3)"/>
<path d="M0 0 C2.475 0.495 2.475 0.495 5 1 C4.34 3.97 3.68 6.94 3 10 C0.70366176 6.55549263 0.45983515 4.06187717 0 0 Z " fill="#FE6161" transform="translate(11,63)"/>
<path d="M0 0 C2 3 2 3 1.75 6.0625 C1 9 1 9 -1 11 C-1.66 10.67 -2.32 10.34 -3 10 C-2.01 6.7 -1.02 3.4 0 0 Z " fill="#6C3838" transform="translate(60,51)"/>
<path d="M0 0 C0.33 0 0.66 0 1 0 C1 1.65 1 3.3 1 5 C1.66 5 2.32 5 3 5 C3 6.65 3 8.3 3 10 C1.68 9.67 0.36 9.34 -1 9 C-0.67 6.03 -0.34 3.06 0 0 Z " fill="#FE6D6D" transform="translate(7,47)"/>
<path d="M0 0 C0.66 0.66 1.32 1.32 2 2 C1.7578125 4.1640625 1.7578125 4.1640625 1.125 6.625 C0.92132813 7.44226562 0.71765625 8.25953125 0.5078125 9.1015625 C0.34023438 9.72804688 0.17265625 10.35453125 0 11 C-0.66 11 -1.32 11 -2 11 C-1.34 7.37 -0.68 3.74 0 0 Z " fill="#BD6363" transform="translate(59,46)"/>
<path d="M0 0 C1.98 0 3.96 0 6 0 C6.66 1.32 7.32 2.64 8 4 C6.68 4.33 5.36 4.66 4 5 C3.67 4.01 3.34 3.02 3 2 C2.01 1.67 1.02 1.34 0 1 C0 0.67 0 0.34 0 0 Z " fill="#FE7777" transform="translate(71,0)"/>
<path d="M0 0 C2.64 1.98 5.28 3.96 8 6 C7.01 6.66 6.02 7.32 5 8 C2.5 6.25 2.5 6.25 0 4 C0 2.68 0 1.36 0 0 Z " fill="#5C2F2F" transform="translate(29,62)"/>
<path d="M0 0 C1.95418308 2.93127462 2.64700993 4.55834679 3 8 C2.34 8.66 1.68 9.32 1 10 C-1.125 3.375 -1.125 3.375 0 0 Z " fill="#623333" transform="translate(18,42)"/>
<path d="M0 0 C2.31 0.33 4.62 0.66 7 1 C6.67 1.99 6.34 2.98 6 4 C4.35 3.67 2.7 3.34 1 3 C0.67 2.01 0.34 1.02 0 0 Z " fill="#A05454" transform="translate(44,72)"/>
<path d="M0 0 C3.26954202 0.56371414 4.82575883 1.49962266 7 4 C3 4 3 4 0 2 C0 1.34 0 0.68 0 0 Z " fill="#B25D5D" transform="translate(38,68)"/>
<path d="M0 0 C0.99 0.33 1.98 0.66 3 1 C1.35 2.65 -0.3 4.3 -2 6 C-2.99 5.67 -3.98 5.34 -5 5 C-3.35 3.35 -1.7 1.7 0 0 Z " fill="#C66767" transform="translate(54,10)"/>
<path d="M0 0 C0.99 0.33 1.98 0.66 3 1 C3 3.31 3 5.62 3 8 C2.34 8 1.68 8 1 8 C0.67 5.36 0.34 2.72 0 0 Z " fill="#281212" transform="translate(60,20)"/>
<path d="" fill="#FF0000" transform="translate(0,0)"/>
<path d="" fill="#FF1010" transform="translate(0,0)"/>
<path d="" fill="#FF0000" transform="translate(0,0)"/>
<path d="" fill="#FF5757" transform="translate(0,0)"/>
<path d="" fill="#FF4949" transform="translate(0,0)"/>
<path d="" fill="#FF0606" transform="translate(0,0)"/>
<path d="" fill="#FF0000" transform="translate(0,0)"/>
<path d="" fill="#FF3030" transform="translate(0,0)"/>
</svg>
